<svg width="13" height="13" viewBox="0 0 13 13" fill="none" xmlns="http://www.w3.org/2000/svg">
<path fill-rule="evenodd" clip-rule="evenodd" d="M7.49935 1.16602C7.49935 0.613731 7.05163 0.166016 6.49935 0.166016C5.94706 0.166016 5.49935 0.613731 5.49935 1.16602V5.49935H1.16602C0.61373 5.49935 0.166016 5.94706 0.166016 6.49935C0.166016 7.05163 0.61373 7.49935 1.16602 7.49935H5.49935V11.8327C5.49935 12.385 5.94706 12.8327 6.49935 12.8327C7.05163 12.8327 7.49935 12.385 7.49935 11.8327V7.49935H11.8327C12.385 7.49935 12.8327 7.05163 12.8327 6.49935C12.8327 5.94706 12.385 5.49935 11.8327 5.49935H7.49935V1.16602Z" fill="#F1963B"/>
</svg>
