<svg width="15" height="15" viewBox="0 0 15 15" fill="none" xmlns="http://www.w3.org/2000/svg">
<path fill-rule="evenodd" clip-rule="evenodd" d="M7.5 0.798817C3.79904 0.798817 0.798817 3.79904 0.798817 7.5C0.798817 11.201 3.79904 14.2012 7.5 14.2012C11.201 14.2012 14.2012 11.201 14.2012 7.5C14.2012 3.79904 11.201 0.798817 7.5 0.798817ZM0 7.5C0 3.35786 3.35786 0 7.5 0C11.6421 0 15 3.35786 15 7.5C15 11.6421 11.6421 15 7.5 15C3.35786 15 0 11.6421 0 7.5Z" fill="#0193CD"/>
<path d="M4 7.69575L6.5 9.91797L11 5.91797" stroke="#0193CD" stroke-linecap="round" stroke-linejoin="round"/>
</svg>
