<svg width="24" height="24" viewBox="0 0 24 24" fill="none" xmlns="http://www.w3.org/2000/svg">
<g clip-path="url(#clip0_6839_48319)">
<path d="M3.29289 16.957C3.10536 17.1445 3 17.3988 3 17.6641V19.9998C3 20.5521 3.44772 20.9998 4 20.9998H6.33579C6.601 20.9998 6.85536 20.8945 7.04289 20.707L17.1029 10.6469C17.4934 10.2564 17.4934 9.62326 17.1029 9.23274L14.7671 6.89695C14.3766 6.50643 13.7434 6.50643 13.3529 6.89695L3.29289 16.957ZM20.7057 7.04695C21.0949 6.6562 21.0943 6.02411 20.7043 5.63413L18.3685 3.29835C17.9774 2.90728 17.3432 2.9079 16.9529 3.29974L15.8343 4.42274C15.4451 4.81349 15.4457 5.44558 15.8357 5.83556L18.1715 8.17134C18.5626 8.56241 19.1968 8.56178 19.5871 8.16994L20.7057 7.04695Z" fill="#0090CE"/>
</g>
<defs>
<clipPath id="clip0_6839_48319">
<rect width="24" height="24" fill="white"/>
</clipPath>
</defs>
</svg>
