<svg width="34" height="33" viewBox="0 0 34 33" fill="none" xmlns="http://www.w3.org/2000/svg">
<path d="M14.0373 23.375H20.4626M17.2499 4.125V5.5M26.0004 7.74955L25.0281 8.72183M29.625 16.4999H28.25M6.25 16.4999H4.875M9.47175 8.72182L8.49948 7.74955M12.3886 21.3614C9.70371 18.6765 9.70371 14.3235 12.3886 11.6387C15.0734 8.95382 19.4264 8.95382 22.1113 11.6387C24.7961 14.3235 24.7961 18.6765 22.1113 21.3614L21.359 22.1136C20.4888 22.9839 19.9999 24.1641 19.9999 25.3948V26.125C19.9999 27.6438 18.7687 28.875 17.2499 28.875C15.7311 28.875 14.4999 27.6438 14.4999 26.125V25.3948C14.4999 24.1641 14.011 22.9839 13.1408 22.1136L12.3886 21.3614Z" stroke="#F1963B" stroke-width="2.75" stroke-linecap="round" stroke-linejoin="round"/>
</svg>
