<svg width="19" height="19" viewBox="0 0 19 19" fill="none" xmlns="http://www.w3.org/2000/svg">
<circle cx="9.4987" cy="4.75065" r="3.16667" stroke="#2F80ED" stroke-width="1.3"/>
<path d="M14.25 7.12435C15.5617 7.12435 16.625 6.23825 16.625 5.14518C16.625 4.05212 15.5617 3.16602 14.25 3.16602" stroke="#2F80ED" stroke-width="1.3" stroke-linecap="round"/>
<path d="M4.75 7.12435C3.43832 7.12435 2.375 6.23825 2.375 5.14518C2.375 4.05212 3.43832 3.16602 4.75 3.16602" stroke="#2F80ED" stroke-width="1.3" stroke-linecap="round"/>
<ellipse cx="9.5" cy="13.4577" rx="4.75" ry="3.16667" stroke="#2F80ED" stroke-width="1.3"/>
<path d="M15.832 15.0423C17.2208 14.7378 18.207 13.9665 18.207 13.0632C18.207 12.1598 17.2208 11.3885 15.832 11.084" stroke="#2F80ED" stroke-width="1.3" stroke-linecap="round"/>
<path d="M3.16797 15.0423C1.77919 14.7378 0.792969 13.9665 0.792969 13.0632C0.792969 12.1598 1.77919 11.3885 3.16797 11.084" stroke="#2F80ED" stroke-width="1.3" stroke-linecap="round"/>
</svg>
