<svg width="26" height="26" viewBox="0 0 26 26" fill="none" xmlns="http://www.w3.org/2000/svg">
<path d="M19.5 14.8729C17.4927 15.6448 15.2986 16.0698 13 16.0698C10.7014 16.0698 8.50727 15.6448 6.5 14.8729M15.8889 9.89484V8.52261C15.8889 7.76476 15.2422 7.15039 14.4444 7.15039H11.5556C10.7578 7.15039 10.1111 7.76476 10.1111 8.52261V9.89484M13 14.0115H13.0072M7.94444 19.5004H18.0556C18.8533 19.5004 19.5 18.886 19.5 18.1282V11.2671C19.5 10.5092 18.8533 9.89484 18.0556 9.89484H7.94444C7.1467 9.89484 6.5 10.5092 6.5 11.2671V18.1282C6.5 18.886 7.1467 19.5004 7.94444 19.5004Z" stroke="#2F80ED" stroke-width="1.3" stroke-linecap="round" stroke-linejoin="round"/>
</svg>
