<svg width="20" height="20" viewBox="0 0 20 20" fill="none" xmlns="http://www.w3.org/2000/svg">
<path d="M9.99915 1.66602C8.38288 1.66909 6.80238 2.14211 5.45017 3.02746C4.09796 3.91282 3.03239 5.1723 2.38326 6.65249C1.73413 8.13268 1.52946 9.7697 1.79417 11.3641C2.05888 12.9586 2.78154 14.4417 3.87415 15.6327V15.6327C4.6545 16.4786 5.6016 17.1536 6.65576 17.6154C7.70992 18.0771 8.8483 18.3155 9.99915 18.3155C11.15 18.3155 12.2884 18.0771 13.3425 17.6154C14.3967 17.1536 15.3438 16.4786 16.1241 15.6327V15.6327C17.2167 14.4417 17.9394 12.9586 18.2041 11.3641C18.4688 9.7697 18.2642 8.13268 17.615 6.65249C16.9659 5.1723 15.9003 3.91282 14.5481 3.02746C13.1959 2.14211 11.6154 1.66909 9.99915 1.66602V1.66602ZM9.99915 16.666C8.27287 16.6634 6.61491 15.9912 5.37415 14.791C5.75085 13.874 6.39167 13.0896 7.21519 12.5376C8.03871 11.9856 9.00774 11.6909 9.99915 11.6909C10.9906 11.6909 11.9596 11.9856 12.7831 12.5376C13.6066 13.0896 14.2474 13.874 14.6241 14.791C13.3834 15.9912 11.7254 16.6634 9.99915 16.666ZM8.33248 8.33268C8.33248 8.00305 8.43023 7.68081 8.61336 7.40673C8.7965 7.13265 9.0568 6.91903 9.36134 6.79288C9.66588 6.66674 10.001 6.63373 10.3243 6.69804C10.6476 6.76235 10.9446 6.92108 11.1777 7.15417C11.4107 7.38726 11.5695 7.68423 11.6338 8.00753C11.6981 8.33083 11.6651 8.66594 11.5389 8.97049C11.4128 9.27503 11.1992 9.53533 10.9251 9.71847C10.651 9.9016 10.3288 9.99935 9.99915 9.99935C9.55712 9.99935 9.1332 9.82375 8.82063 9.51119C8.50807 9.19863 8.33248 8.77471 8.33248 8.33268ZM15.7575 13.3327C15.0129 12.0591 13.867 11.0685 12.4991 10.516C12.9235 10.0349 13.1999 9.44156 13.2954 8.80721C13.3908 8.17286 13.3012 7.52444 13.0373 6.93976C12.7733 6.35508 12.3463 5.85898 11.8074 5.51099C11.2685 5.16299 10.6406 4.97789 9.99915 4.97789C9.35765 4.97789 8.72979 5.16299 8.19089 5.51099C7.65199 5.85898 7.22495 6.35508 6.96102 6.93976C6.69709 7.52444 6.60747 8.17286 6.70292 8.80721C6.79837 9.44156 7.07484 10.0349 7.49915 10.516C6.13131 11.0685 4.98537 12.0591 4.24081 13.3327C3.64743 12.3219 3.33391 11.1714 3.33248 9.99935C3.33248 8.23124 4.03486 6.53555 5.2851 5.2853C6.53534 4.03506 8.23104 3.33268 9.99915 3.33268C11.7673 3.33268 13.4629 4.03506 14.7132 5.2853C15.9634 6.53555 16.6658 8.23124 16.6658 9.99935C16.6644 11.1714 16.3509 12.3219 15.7575 13.3327V13.3327Z" fill="#012F85"/>
</svg>
