<svg width="20" height="20" viewBox="0 0 20 20" fill="none" xmlns="http://www.w3.org/2000/svg">
<path d="M17.1042 5.46922L11.641 2.90795C10.4808 2.36402 9.18061 2.36402 8.0204 2.90795L2.55728 5.46918C1.36893 6.02631 1.36893 7.95486 2.55728 8.51199L8.02047 11.0733C9.18068 11.6172 10.4809 11.6172 11.6411 11.0733L17.1042 8.51203C18.2926 7.9549 18.2926 6.02634 17.1042 5.46922Z" stroke="#012F85" stroke-width="2" stroke-linecap="round"/>
<path d="M1.66602 6.99219V11.4828" stroke="#012F85" stroke-width="2" stroke-linecap="round"/>
<path d="M15.5459 9.44141V13.6262C15.5459 14.4492 15.1348 15.2198 14.4148 15.6185C13.9817 15.8583 10.4427 17.198 9.83055 17.1979C9.21839 17.1979 6.44521 16.2824 5.24632 15.6185C4.52633 15.2198 4.11523 14.4492 4.11523 13.6262V9.44141" stroke="#012F85" stroke-width="2" stroke-linecap="round"/>
</svg>
