<svg width="20" height="20" viewBox="0 0 20 20" fill="none" xmlns="http://www.w3.org/2000/svg">
<path d="M10.834 11.666H7.50065C7.27964 11.666 7.06768 11.7538 6.9114 11.9101C6.75512 12.0664 6.66732 12.2783 6.66732 12.4993C6.66732 12.7204 6.75512 12.9323 6.9114 13.0886C7.06768 13.2449 7.27964 13.3327 7.50065 13.3327H10.834C11.055 13.3327 11.267 13.2449 11.4232 13.0886C11.5795 12.9323 11.6673 12.7204 11.6673 12.4993C11.6673 12.2783 11.5795 12.0664 11.4232 11.9101C11.267 11.7538 11.055 11.666 10.834 11.666ZM14.1673 3.33268H13.184C13.0121 2.84639 12.6939 2.42518 12.2732 2.1268C11.8525 1.82841 11.3498 1.66747 10.834 1.66602H9.16732C8.65153 1.66747 8.14882 1.82841 7.7281 2.1268C7.30738 2.42518 6.98925 2.84639 6.81732 3.33268H5.83398C5.17094 3.33268 4.53506 3.59607 4.06622 4.06492C3.59738 4.53376 3.33398 5.16964 3.33398 5.83268V15.8327C3.33398 16.4957 3.59738 17.1316 4.06622 17.6005C4.53506 18.0693 5.17094 18.3327 5.83398 18.3327H14.1673C14.8304 18.3327 15.4662 18.0693 15.9351 17.6005C16.4039 17.1316 16.6673 16.4957 16.6673 15.8327V5.83268C16.6673 5.16964 16.4039 4.53376 15.9351 4.06492C15.4662 3.59607 14.8304 3.33268 14.1673 3.33268ZM8.33398 4.16602C8.33398 3.945 8.42178 3.73304 8.57806 3.57676C8.73434 3.42048 8.9463 3.33268 9.16732 3.33268H10.834C11.055 3.33268 11.267 3.42048 11.4232 3.57676C11.5795 3.73304 11.6673 3.945 11.6673 4.16602V4.99935H8.33398V4.16602ZM15.0007 15.8327C15.0007 16.0537 14.9129 16.2657 14.7566 16.4219C14.6003 16.5782 14.3883 16.666 14.1673 16.666H5.83398C5.61297 16.666 5.40101 16.5782 5.24473 16.4219C5.08845 16.2657 5.00065 16.0537 5.00065 15.8327V5.83268C5.00065 5.61167 5.08845 5.39971 5.24473 5.24343C5.40101 5.08715 5.61297 4.99935 5.83398 4.99935H6.66732V5.83268C6.66732 6.0537 6.75512 6.26566 6.9114 6.42194C7.06768 6.57822 7.27964 6.66602 7.50065 6.66602H12.5007C12.7217 6.66602 12.9336 6.57822 13.0899 6.42194C13.2462 6.26566 13.334 6.0537 13.334 5.83268V4.99935H14.1673C14.3883 4.99935 14.6003 5.08715 14.7566 5.24343C14.9129 5.39971 15.0007 5.61167 15.0007 5.83268V15.8327ZM12.5007 8.33268H7.50065C7.27964 8.33268 7.06768 8.42048 6.9114 8.57676C6.75512 8.73304 6.66732 8.945 6.66732 9.16602C6.66732 9.38703 6.75512 9.59899 6.9114 9.75527C7.06768 9.91155 7.27964 9.99935 7.50065 9.99935H12.5007C12.7217 9.99935 12.9336 9.91155 13.0899 9.75527C13.2462 9.59899 13.334 9.38703 13.334 9.16602C13.334 8.945 13.2462 8.73304 13.0899 8.57676C12.9336 8.42048 12.7217 8.33268 12.5007 8.33268Z" fill="#012F85"/>
</svg>
