<svg width="20" height="20" viewBox="0 0 20 20" fill="none" xmlns="http://www.w3.org/2000/svg">
<path d="M15.0007 10.9827V8.33268C14.9995 7.15195 14.5804 6.00974 13.8178 5.10833C13.0552 4.20692 11.9982 3.60447 10.834 3.40768V2.49935C10.834 2.27834 10.7462 2.06637 10.5899 1.91009C10.4336 1.75381 10.2217 1.66602 10.0007 1.66602C9.77964 1.66602 9.56768 1.75381 9.4114 1.91009C9.25512 2.06637 9.16732 2.27834 9.16732 2.49935V3.40768C8.0031 3.60447 6.94609 4.20692 6.18347 5.10833C5.42086 6.00974 5.00185 7.15195 5.00065 8.33268V10.9827C4.51436 11.1546 4.09315 11.4727 3.79477 11.8935C3.49638 12.3142 3.33543 12.8169 3.33398 13.3327V14.9993C3.33398 15.2204 3.42178 15.4323 3.57806 15.5886C3.73434 15.7449 3.9463 15.8327 4.16732 15.8327H6.78398C6.97589 16.5388 7.39482 17.1622 7.97615 17.6066C8.55748 18.0511 9.2689 18.2918 10.0007 18.2918C10.7324 18.2918 11.4438 18.0511 12.0252 17.6066C12.6065 17.1622 13.0254 16.5388 13.2173 15.8327H15.834C16.055 15.8327 16.267 15.7449 16.4232 15.5886C16.5795 15.4323 16.6673 15.2204 16.6673 14.9993V13.3327C16.6659 12.8169 16.5049 12.3142 16.2065 11.8935C15.9082 11.4727 15.4869 11.1546 15.0007 10.9827V10.9827ZM6.66732 8.33268C6.66732 7.44863 7.01851 6.60078 7.64363 5.97566C8.26875 5.35054 9.1166 4.99935 10.0007 4.99935C10.8847 4.99935 11.7326 5.35054 12.3577 5.97566C12.9828 6.60078 13.334 7.44863 13.334 8.33268V10.8327H6.66732V8.33268ZM10.0007 16.666C9.70979 16.6643 9.42446 16.5864 9.17301 16.4402C8.92156 16.294 8.71274 16.0846 8.56732 15.8327H11.434C11.2886 16.0846 11.0797 16.294 10.8283 16.4402C10.5768 16.5864 10.2915 16.6643 10.0007 16.666ZM15.0007 14.166H5.00065V13.3327C5.00065 13.1117 5.08845 12.8997 5.24473 12.7434C5.40101 12.5871 5.61297 12.4993 5.83398 12.4993H14.1673C14.3883 12.4993 14.6003 12.5871 14.7566 12.7434C14.9129 12.8997 15.0007 13.1117 15.0007 13.3327V14.166Z" fill="#012F85"/>
</svg>
