<svg width="40" height="40" viewBox="0 0 40 40" fill="none" xmlns="http://www.w3.org/2000/svg">
<path fill-rule="evenodd" clip-rule="evenodd" d="M20.4195 9L20.4595 9C21.8695 9 23.0195 10.15 23.0195 11.56C23.0195 12.97 21.8695 14.12 20.4595 14.12L20.4195 14.12C19.0095 14.13 17.8595 12.97 17.8595 11.56C17.8595 10.15 19.0095 9 20.4195 9Z" fill="#012f85"/>
<path fill-rule="evenodd" clip-rule="evenodd" d="M20.4195 17.99L20.4595 17.99C21.8695 17.99 23.0195 19.14 23.0195 20.55C23.0195 21.96 21.8695 23.11 20.4595 23.11L20.4195 23.11C19.0095 23.12 17.8595 21.97 17.8595 20.56C17.8595 19.15 19.0095 17.99 20.4195 17.99Z" fill="#012f85"/>
<path fill-rule="evenodd" clip-rule="evenodd" d="M20.4195 26.99L20.4595 26.99C21.8695 26.99 23.0195 28.14 23.0195 29.55C23.0195 30.96 21.8695 32.11 20.4595 32.11L20.4195 32.11C19.0095 32.11 17.8595 30.96 17.8595 29.55C17.8595 28.14 19.0095 26.99 20.4195 26.99Z" fill="#012f85"/>
</svg>
