<svg width="20" height="20" viewBox="0 0 20 20" fill="none" xmlns="http://www.w3.org/2000/svg">
<path d="M17.5 11.8795C15.1839 12.8171 12.6523 13.3333 10 13.3333C7.34775 13.3333 4.81608 12.8171 2.5 11.8795M13.3333 5.83333V4.16667C13.3333 3.24619 12.5871 2.5 11.6667 2.5H8.33333C7.41286 2.5 6.66667 3.24619 6.66667 4.16667V5.83333M10 10.8333H10.0083M4.16667 17.5H15.8333C16.7538 17.5 17.5 16.7538 17.5 15.8333V7.5C17.5 6.57953 16.7538 5.83333 15.8333 5.83333H4.16667C3.24619 5.83333 2.5 6.57953 2.5 7.5V15.8333C2.5 16.7538 3.24619 17.5 4.16667 17.5Z" stroke="#012F85" stroke-width="2" stroke-linecap="round" stroke-linejoin="round"/>
</svg>
