<svg width="16" height="17" viewBox="0 0 16 17" fill="none" xmlns="http://www.w3.org/2000/svg">
<path fill-rule="evenodd" clip-rule="evenodd" d="M8.99935 3.09961C8.99935 2.54732 8.55163 2.09961 7.99935 2.09961C7.44706 2.09961 6.99935 2.54732 6.99935 3.09961V7.43294H2.66602C2.11373 7.43294 1.66602 7.88066 1.66602 8.43294C1.66602 8.98523 2.11373 9.43294 2.66602 9.43294H6.99935V13.7663C6.99935 14.3186 7.44706 14.7663 7.99935 14.7663C8.55163 14.7663 8.99935 14.3186 8.99935 13.7663V9.43294H13.3327C13.885 9.43294 14.3327 8.98523 14.3327 8.43294C14.3327 7.88066 13.885 7.43294 13.3327 7.43294H8.99935V3.09961Z" fill="#012F85"/>
</svg>
