<svg width="13" height="12" viewBox="0 0 13 12" fill="none" xmlns="http://www.w3.org/2000/svg">
<path d="M6.41641 0.173828C5.26402 0.173828 4.13752 0.51555 3.17934 1.15578C2.22117 1.79601 1.47437 2.706 1.03337 3.77066C0.592368 4.83533 0.476983 6.00685 0.701802 7.1371C0.926621 8.26734 1.48155 9.30553 2.29641 10.1204C3.11127 10.9353 4.14946 11.4902 5.2797 11.715C6.40995 11.9398 7.58147 11.8244 8.64614 11.3834C9.7108 10.9424 10.6208 10.1956 11.261 9.23746C11.9012 8.27928 12.243 7.15278 12.243 6.00039C12.243 5.23524 12.0923 4.47757 11.7994 3.77066C11.5066 3.06375 11.0775 2.42144 10.5364 1.88039C9.99536 1.33934 9.35305 0.910161 8.64614 0.617349C7.93923 0.324537 7.18156 0.173828 6.41641 0.173828ZM6.41641 10.6616C5.4945 10.6616 4.5933 10.3883 3.82676 9.87608C3.06022 9.36389 2.46277 8.63591 2.10998 7.78417C1.75718 6.93244 1.66487 5.99522 1.84472 5.09103C2.02458 4.18683 2.46852 3.35628 3.12041 2.70439C3.77229 2.0525 4.60285 1.60856 5.50704 1.42871C6.41124 1.24885 7.34846 1.34116 8.20019 1.69396C9.05192 2.04676 9.77991 2.6442 10.2921 3.41074C10.8043 4.17728 11.0777 5.07848 11.0777 6.00039C11.0777 7.23663 10.5866 8.42224 9.71241 9.29639C8.83826 10.1705 7.65265 10.6616 6.41641 10.6616ZM6.99906 5.95961V3.08711C6.99906 2.93258 6.93768 2.78438 6.82841 2.67511C6.71914 2.56584 6.57094 2.50445 6.41641 2.50445C6.26188 2.50445 6.11368 2.56584 6.00441 2.67511C5.89514 2.78438 5.83375 2.93258 5.83375 3.08711V6.00039C5.83375 6.00039 5.83375 6.04118 5.83375 6.06448C5.81942 6.18293 5.84179 6.30293 5.89784 6.40825L6.77183 7.92316C6.84909 8.0576 6.9766 8.15584 7.1263 8.19627C7.276 8.2367 7.43563 8.216 7.57007 8.13874C7.70451 8.06147 7.80275 7.93397 7.84318 7.78427C7.88361 7.63457 7.86292 7.47494 7.78565 7.3405L6.99906 5.95961Z" fill="white"/>
</svg>
