<svg width="14" height="14" viewBox="0 0 14 14" fill="none" xmlns="http://www.w3.org/2000/svg">
<g clip-path="url(#clip0_8141_48892)">
<path d="M3.50313 6.41781C3.38789 6.41781 3.27524 6.45198 3.17942 6.51601C3.0836 6.58003 3.00892 6.67103 2.96482 6.7775C2.92072 6.88396 2.90918 7.00112 2.93166 7.11414C2.95415 7.22716 3.00964 7.33098 3.09113 7.41247C3.17261 7.49395 3.27643 7.54945 3.38945 7.57193C3.50248 7.59441 3.61963 7.58287 3.7261 7.53877C3.83256 7.49467 3.92356 7.41999 3.98759 7.32418C4.05161 7.22836 4.08578 7.11571 4.08578 7.00047C4.08578 6.84594 4.02439 6.69774 3.91513 6.58847C3.80586 6.4792 3.65766 6.41781 3.50313 6.41781ZM10.495 6.41781C10.3798 6.41781 10.2671 6.45198 10.1713 6.51601C10.0755 6.58003 10.0008 6.67103 9.9567 6.7775C9.9126 6.88396 9.90106 7.00112 9.92354 7.11414C9.94602 7.22716 10.0015 7.33098 10.083 7.41247C10.1645 7.49395 10.2683 7.54945 10.3813 7.57193C10.4944 7.59441 10.6115 7.58287 10.718 7.53877C10.8244 7.49467 10.9154 7.41999 10.9795 7.32418C11.0435 7.22836 11.0777 7.11571 11.0777 7.00047C11.0777 6.84594 11.0163 6.69774 10.907 6.58847C10.7977 6.4792 10.6495 6.41781 10.495 6.41781ZM11.6603 2.92188H2.33781C1.87422 2.92188 1.42962 3.10604 1.10181 3.43384C0.774004 3.76165 0.589844 4.20625 0.589844 4.66984V9.33109C0.589844 9.79468 0.774004 10.2393 1.10181 10.5671C1.42962 10.8949 1.87422 11.0791 2.33781 11.0791H11.6603C12.1239 11.0791 12.5685 10.8949 12.8963 10.5671C13.2241 10.2393 13.4083 9.79468 13.4083 9.33109V4.66984C13.4083 4.20625 13.2241 3.76165 12.8963 3.43384C12.5685 3.10604 12.1239 2.92188 11.6603 2.92188ZM12.243 9.33109C12.243 9.48562 12.1816 9.63383 12.0723 9.74309C11.963 9.85236 11.8148 9.91375 11.6603 9.91375H2.33781C2.18328 9.91375 2.03508 9.85236 1.92581 9.74309C1.81654 9.63383 1.75516 9.48562 1.75516 9.33109V4.66984C1.75516 4.51531 1.81654 4.36711 1.92581 4.25784C2.03508 4.14857 2.18328 4.08719 2.33781 4.08719H11.6603C11.8148 4.08719 11.963 4.14857 12.0723 4.25784C12.1816 4.36711 12.243 4.51531 12.243 4.66984V9.33109ZM6.99906 5.2525C6.65335 5.2525 6.3154 5.35502 6.02794 5.54709C5.74049 5.73916 5.51645 6.01215 5.38415 6.33155C5.25185 6.65095 5.21724 7.00241 5.28468 7.34148C5.35213 7.68055 5.5186 7.99201 5.76306 8.23647C6.00752 8.48093 6.31898 8.64741 6.65805 8.71485C6.99712 8.7823 7.34858 8.74768 7.66798 8.61538C7.98738 8.48308 8.26038 8.25904 8.45245 7.97159C8.64452 7.68414 8.74703 7.34618 8.74703 7.00047C8.74703 6.53688 8.56287 6.09228 8.23506 5.76447C7.90726 5.43666 7.46265 5.2525 6.99906 5.2525ZM6.99906 7.58313C6.88382 7.58313 6.77117 7.54895 6.67536 7.48493C6.57954 7.42091 6.50486 7.32991 6.46076 7.22344C6.41666 7.11698 6.40512 6.99982 6.4276 6.8868C6.45008 6.77377 6.50558 6.66995 6.58706 6.58847C6.66855 6.50698 6.77237 6.45149 6.88539 6.42901C6.99842 6.40653 7.11557 6.41806 7.22204 6.46216C7.3285 6.50626 7.4195 6.58094 7.48352 6.67676C7.54755 6.77258 7.58172 6.88523 7.58172 7.00047C7.58172 7.155 7.52033 7.3032 7.41106 7.41247C7.30179 7.52174 7.15359 7.58313 6.99906 7.58313Z" fill="white"/>
</g>
<defs>
<clipPath id="clip0_8141_48892">
<rect width="13.9838" height="13.9838" fill="white" transform="translate(0.0078125 0.0078125)"/>
</clipPath>
</defs>
</svg>
