<svg width="14" height="14" viewBox="0 0 14 14" fill="none" xmlns="http://www.w3.org/2000/svg">
<g clip-path="url(#clip0_8141_48881)">
<path d="M8.45703 6.39867C9.60679 6.25539 10.4965 5.27462 10.4965 4.08605C10.4965 2.89748 9.60679 1.91672 8.45703 1.77344C9.00108 2.38974 9.3312 3.19934 9.3312 4.08605C9.3312 4.97276 9.00108 5.78237 8.45703 6.39867Z" fill="white"/>
<path d="M11.662 11.6613C11.662 11.9831 11.9228 12.2439 12.2446 12.2439C12.5664 12.2439 12.8273 11.9831 12.8273 11.6613V10.496C12.8273 8.94603 11.6169 7.6788 10.0898 7.58789C10.7029 8.13078 11.1718 8.83267 11.4322 9.62895C11.5784 9.88447 11.662 10.1805 11.662 10.496V11.6613Z" fill="white"/>
<path fill-rule="evenodd" clip-rule="evenodd" d="M4.08516 8.74734C3.11978 8.74734 2.33719 9.52994 2.33719 10.4953V11.6606C2.33719 11.9824 2.07632 12.2433 1.75453 12.2433C1.43274 12.2433 1.17188 11.9824 1.17188 11.6606V10.4953C1.17188 8.88635 2.4762 7.58203 4.08516 7.58203H7.58109C9.19005 7.58203 10.4944 8.88635 10.4944 10.4953V11.6606C10.4944 11.9824 10.2335 12.2433 9.91172 12.2433C9.58993 12.2433 9.32906 11.9824 9.32906 11.6606V10.4953C9.32906 9.52994 8.54647 8.74734 7.58109 8.74734H4.08516Z" fill="white"/>
<path fill-rule="evenodd" clip-rule="evenodd" d="M5.83453 2.92117C5.19095 2.92117 4.66922 3.4429 4.66922 4.08648C4.66922 4.73007 5.19095 5.2518 5.83453 5.2518C6.47812 5.2518 6.99984 4.73007 6.99984 4.08648C6.99984 3.4429 6.47812 2.92117 5.83453 2.92117ZM3.50391 4.08648C3.50391 2.79932 4.54736 1.75586 5.83453 1.75586C7.1217 1.75586 8.16516 2.79932 8.16516 4.08648C8.16516 5.37365 7.1217 6.41711 5.83453 6.41711C4.54736 6.41711 3.50391 5.37365 3.50391 4.08648Z" fill="white"/>
</g>
<defs>
<clipPath id="clip0_8141_48881">
<rect width="13.9838" height="13.9838" fill="white" transform="translate(0.0078125 0.0078125)"/>
</clipPath>
</defs>
</svg>
