<svg width="18" height="18" viewBox="0 0 18 18" fill="none" xmlns="http://www.w3.org/2000/svg">
<circle cx="8.69078" cy="8.99937" r="8.69078" fill="#6FCF97"/>
<path fill-rule="evenodd" clip-rule="evenodd" d="M14.7058 8.31376H14.7078C15.0762 8.31376 15.3756 8.61192 15.3763 8.98028C15.3817 10.7659 14.6911 12.4472 13.4316 13.7134C12.1728 14.9796 10.4961 15.6795 8.71049 15.6849H8.6911C6.91217 15.6849 5.23886 14.995 3.97736 13.7402C2.71118 12.4813 2.01124 10.8047 2.00589 9.01905C2.00054 7.23277 2.69112 5.5521 3.95062 4.28592C5.20944 3.01974 6.8861 2.3198 8.67172 2.31445C9.20319 2.32248 9.74469 2.37596 10.2635 2.5003C10.6218 2.58721 10.8431 2.94821 10.7562 3.30721C10.6699 3.66553 10.3069 3.88615 9.94993 3.80058C9.53478 3.7003 9.09422 3.65818 8.67573 3.6515C7.2471 3.65551 5.90538 4.21573 4.89858 5.22854C3.89112 6.24135 3.33892 7.58641 3.34293 9.01504C3.34694 10.4437 3.90716 11.7847 4.91997 12.7922C5.92944 13.7956 7.26782 14.3478 8.6911 14.3478H8.70648C10.1351 14.3438 11.4768 13.7836 12.4836 12.7708C13.4911 11.7573 14.0433 10.4129 14.0393 8.98429C14.0386 8.61527 14.3368 8.31443 14.7058 8.31376ZM6.21347 8.52673C6.47486 8.26534 6.89736 8.26534 7.15876 8.52673L8.65892 10.0269L12.8686 5.21622C13.1119 4.94012 13.5338 4.9107 13.8119 5.15404C14.0893 5.39672 14.1174 5.81922 13.8741 6.09733L9.1944 11.4455C9.07273 11.5846 8.89892 11.6668 8.71374 11.6735H8.69168C8.51452 11.6735 8.34471 11.6033 8.21903 11.4776L6.21347 9.47202C5.95207 9.21063 5.95207 8.78813 6.21347 8.52673Z" fill="white"/>
</svg>
